<mxfile host="Electron" agent="Mozilla/5.0 (Windows NT 10.0; Win64; x64) AppleWebKit/537.36 (KHTML, like Gecko) draw.io/26.2.2 Chrome/134.0.6998.178 Electron/35.1.2 Safari/537.36" version="26.2.2">
  <diagram name="Page-1" id="jW8YMbaWXAAI7ImZlEEr">
    <mxGraphModel dx="4719" dy="3566" grid="1" gridSize="10" guides="1" tooltips="1" connect="1" arrows="1" fold="1" page="1" pageScale="1" pageWidth="850" pageHeight="1100" background="light-dark(#FFFFFF,#FFFEFE)" math="0" shadow="0">
      <root>
        <mxCell id="0" />
        <mxCell id="1" parent="0" />
        <mxCell id="83" value="&lt;font style=&quot;font-size: 19px; color: rgb(255, 255, 255);&quot;&gt;&lt;b style=&quot;&quot;&gt;Read/Write&lt;/b&gt;&lt;/font&gt;" style="shape=doubleArrow;whiteSpace=wrap;html=1;fillColor=#1ba1e2;strokeColor=#006EAF;fontColor=#ffffff;rounded=1;" parent="1" vertex="1">
          <mxGeometry x="720" y="-80" width="280" height="120" as="geometry" />
        </mxCell>
        <mxCell id="0_KBqYn_ndAyOyzbdBZQ-91" value="" style="group" vertex="1" connectable="0" parent="1">
          <mxGeometry x="1901.16" y="175" width="128.83999999999997" height="125" as="geometry" />
        </mxCell>
        <mxCell id="0_KBqYn_ndAyOyzbdBZQ-93" value="Replica Rrimary" style="text;strokeColor=none;align=center;fillColor=none;html=1;verticalAlign=middle;whiteSpace=wrap;rounded=0;fontFamily=Times New Roman;" vertex="1" parent="0_KBqYn_ndAyOyzbdBZQ-91">
          <mxGeometry x="18.839999999999975" y="35" width="92.33" height="61.43" as="geometry" />
        </mxCell>
        <mxCell id="34" value="Internet Layer" parent="0" />
        <mxCell id="58" value="" style="group;fontFamily=Times New Roman;fillColor=none;strokeColor=none;fontColor=#ffffff;" parent="34" vertex="1" connectable="0">
          <mxGeometry x="-50" y="270" width="570" height="700" as="geometry" />
        </mxCell>
        <mxCell id="35" value="&lt;h1&gt;&lt;font style=&quot;color: light-dark(rgb(0, 0, 0), rgb(255, 255, 255));&quot;&gt;Internet&lt;/font&gt;&lt;/h1&gt;" style="ellipse;shape=cloud;whiteSpace=wrap;html=1;fillColor=#1ba1e2;strokeWidth=6;fontFamily=Helvetica;fontSize=12;movable=0;resizable=0;rotatable=0;deletable=0;editable=0;locked=1;connectable=0;perimeterSpacing=0;strokeColor=#006EAF;rounded=1;align=center;verticalAlign=middle;fontColor=#ffffff;" parent="58" vertex="1">
          <mxGeometry y="138.53632190116124" width="530" height="307.8584931136917" as="geometry" />
        </mxCell>
        <mxCell id="0_KBqYn_ndAyOyzbdBZQ-230" value="" style="group;strokeWidth=1;rotation=-180;" vertex="1" connectable="0" parent="58">
          <mxGeometry x="75.28301886792453" y="-28" width="107.54716981132076" height="222.22222222222223" as="geometry" />
        </mxCell>
        <mxCell id="0_KBqYn_ndAyOyzbdBZQ-231" value="" style="verticalAlign=middle;endArrow=block;curved=0;rounded=0;fillColor=#1ba1e2;strokeColor=#006EAF;strokeWidth=9;flowAnimation=1;fontColor=#FFFFFF;labelBackgroundColor=#3333FF;spacingRight=0;spacingBottom=0;spacingLeft=21;fontFamily=Times New Roman;labelBorderColor=none;labelPosition=center;verticalLabelPosition=middle;align=center;textShadow=0;html=1;dashed=1;startArrow=none;startFill=0;dashPattern=1 1;shadow=0;fontSize=18;" edge="1" parent="0_KBqYn_ndAyOyzbdBZQ-230" source="0_KBqYn_ndAyOyzbdBZQ-233">
          <mxGeometry x="-0.3333" y="10" width="80" relative="1" as="geometry">
            <mxPoint x="35.490566037735846" y="147.77777777777777" as="sourcePoint" />
            <mxPoint x="53.77358490566038" as="targetPoint" />
            <mxPoint as="offset" />
          </mxGeometry>
        </mxCell>
        <mxCell id="0_KBqYn_ndAyOyzbdBZQ-232" value="" style="verticalAlign=middle;endArrow=none;curved=0;rounded=0;fillColor=#1ba1e2;strokeColor=#006EAF;strokeWidth=10;flowAnimation=1;fontColor=#FFFFFF;labelBackgroundColor=#3333FF;spacingRight=0;spacingBottom=0;spacingLeft=21;fontFamily=Times New Roman;labelBorderColor=none;labelPosition=center;verticalLabelPosition=middle;align=center;textShadow=0;html=1;dashed=1;startArrow=oval;startFill=0;dashPattern=1 1;shadow=0;endSize=6;" edge="1" parent="0_KBqYn_ndAyOyzbdBZQ-230" target="0_KBqYn_ndAyOyzbdBZQ-233">
          <mxGeometry x="-0.3333" y="10" width="80" relative="1" as="geometry">
            <mxPoint x="52.698113207547166" y="222.22222222222223" as="sourcePoint" />
            <mxPoint x="53.77358490566038" y="74.44444444444444" as="targetPoint" />
            <mxPoint as="offset" />
          </mxGeometry>
        </mxCell>
        <mxCell id="0_KBqYn_ndAyOyzbdBZQ-233" value="&lt;h4&gt;&lt;span style=&quot;color: rgb(255, 255, 255); font-size: 17px; font-weight: 400;&quot;&gt;Request&lt;/span&gt;&lt;/h4&gt;" style="rounded=1;whiteSpace=wrap;html=1;align=center;spacingBottom=4;labelBackgroundColor=none;fillColor=#1ba1e2;fontColor=#ffffff;strokeColor=#006EAF;rotation=0;" vertex="1" parent="0_KBqYn_ndAyOyzbdBZQ-230">
          <mxGeometry x="4.72" y="98.00111111111111" width="100" height="37.332" as="geometry" />
        </mxCell>
        <mxCell id="0_KBqYn_ndAyOyzbdBZQ-235" value="" style="group;strokeWidth=1;" vertex="1" connectable="0" parent="58">
          <mxGeometry x="387.1698113207547" y="-21.11111111111111" width="107.54716981132076" height="222.22222222222223" as="geometry" />
        </mxCell>
        <mxCell id="0_KBqYn_ndAyOyzbdBZQ-236" value="" style="verticalAlign=middle;endArrow=block;curved=0;rounded=0;fillColor=#1ba1e2;strokeColor=#006EAF;strokeWidth=9;flowAnimation=1;fontColor=#FFFFFF;labelBackgroundColor=#3333FF;spacingRight=0;spacingBottom=0;spacingLeft=21;fontFamily=Times New Roman;labelBorderColor=none;labelPosition=center;verticalLabelPosition=middle;align=center;textShadow=0;html=1;dashed=1;startArrow=none;startFill=0;dashPattern=1 1;shadow=0;fontSize=18;" edge="1" parent="0_KBqYn_ndAyOyzbdBZQ-235" source="0_KBqYn_ndAyOyzbdBZQ-238">
          <mxGeometry x="-0.3333" y="10" width="80" relative="1" as="geometry">
            <mxPoint x="71.69811320754718" y="74.07407407407406" as="sourcePoint" />
            <mxPoint x="53.77358490566038" y="222.22222222222223" as="targetPoint" />
            <mxPoint as="offset" />
          </mxGeometry>
        </mxCell>
        <mxCell id="0_KBqYn_ndAyOyzbdBZQ-237" value="" style="verticalAlign=middle;endArrow=none;curved=0;rounded=0;fillColor=#1ba1e2;strokeColor=#006EAF;strokeWidth=10;flowAnimation=1;fontColor=#FFFFFF;labelBackgroundColor=#3333FF;spacingRight=0;spacingBottom=0;spacingLeft=21;fontFamily=Times New Roman;labelBorderColor=none;labelPosition=center;verticalLabelPosition=middle;align=center;textShadow=0;html=1;dashed=1;startArrow=oval;startFill=0;dashPattern=1 1;shadow=0;endSize=6;" edge="1" parent="0_KBqYn_ndAyOyzbdBZQ-235" target="0_KBqYn_ndAyOyzbdBZQ-238">
          <mxGeometry x="-0.3333" y="10" width="80" relative="1" as="geometry">
            <mxPoint x="54.84905660377358" as="sourcePoint" />
            <mxPoint x="53.77358490566038" y="148.14814814814812" as="targetPoint" />
            <mxPoint as="offset" />
          </mxGeometry>
        </mxCell>
        <mxCell id="0_KBqYn_ndAyOyzbdBZQ-238" value="&lt;h4 style=&quot;color: rgb(255, 255, 255); font-family: &amp;quot;Times New Roman&amp;quot;; font-size: 18px;&quot;&gt;&lt;span style=&quot;font-family: Helvetica; font-size: 17px; font-weight: 400;&quot;&gt;Response&lt;/span&gt;&lt;/h4&gt;" style="rounded=1;whiteSpace=wrap;html=1;align=center;spacingBottom=4;labelBackgroundColor=none;fillColor=#1ba1e2;fontColor=#ffffff;strokeColor=#006EAF;" vertex="1" parent="0_KBqYn_ndAyOyzbdBZQ-235">
          <mxGeometry x="2.83" y="81.11296296296295" width="100" height="37.332" as="geometry" />
        </mxCell>
        <mxCell id="0_KBqYn_ndAyOyzbdBZQ-246" value="" style="group;strokeWidth=1;" vertex="1" connectable="0" parent="58">
          <mxGeometry x="407" y="410" width="107.55" height="232.22" as="geometry" />
        </mxCell>
        <mxCell id="0_KBqYn_ndAyOyzbdBZQ-247" value="" style="verticalAlign=middle;endArrow=block;curved=0;rounded=0;fillColor=#1ba1e2;strokeColor=#006EAF;strokeWidth=9;flowAnimation=1;fontColor=#FFFFFF;labelBackgroundColor=#3333FF;spacingRight=0;spacingBottom=0;spacingLeft=21;fontFamily=Times New Roman;labelBorderColor=none;labelPosition=center;verticalLabelPosition=middle;align=center;textShadow=0;html=1;dashed=1;startArrow=none;startFill=0;dashPattern=1 1;shadow=0;fontSize=18;" edge="1" parent="0_KBqYn_ndAyOyzbdBZQ-246" source="0_KBqYn_ndAyOyzbdBZQ-249">
          <mxGeometry x="-0.3333" y="10" width="80" relative="1" as="geometry">
            <mxPoint x="71.7" y="77.40666666666664" as="sourcePoint" />
            <mxPoint x="53.77499999999999" y="232.21999999999997" as="targetPoint" />
            <mxPoint as="offset" />
          </mxGeometry>
        </mxCell>
        <mxCell id="0_KBqYn_ndAyOyzbdBZQ-248" value="" style="verticalAlign=middle;endArrow=none;curved=0;rounded=0;fillColor=#1ba1e2;strokeColor=#006EAF;strokeWidth=10;flowAnimation=1;fontColor=#FFFFFF;labelBackgroundColor=#3333FF;spacingRight=0;spacingBottom=0;spacingLeft=21;fontFamily=Times New Roman;labelBorderColor=none;labelPosition=center;verticalLabelPosition=middle;align=center;textShadow=0;html=1;dashed=1;startArrow=oval;startFill=0;dashPattern=1 1;shadow=0;endSize=6;" edge="1" parent="0_KBqYn_ndAyOyzbdBZQ-246" target="0_KBqYn_ndAyOyzbdBZQ-249">
          <mxGeometry x="-0.3333" y="10" width="80" relative="1" as="geometry">
            <mxPoint x="53" as="sourcePoint" />
            <mxPoint x="53.77499999999999" y="154.81333333333328" as="targetPoint" />
            <mxPoint as="offset" />
          </mxGeometry>
        </mxCell>
        <mxCell id="0_KBqYn_ndAyOyzbdBZQ-249" value="&lt;h4&gt;&lt;span style=&quot;font-family: Helvetica; font-size: 17px; font-weight: 400;&quot;&gt;Response&lt;/span&gt;&lt;/h4&gt;" style="rounded=1;whiteSpace=wrap;html=1;align=center;spacingBottom=0;labelBackgroundColor=none;fillColor=#1ba1e2;fontColor=default;strokeColor=#006EAF;verticalAlign=middle;fontFamily=Times New Roman;fontSize=18;fontStyle=0" vertex="1" parent="0_KBqYn_ndAyOyzbdBZQ-246">
          <mxGeometry x="3.0000789473684204" y="73.15239626666664" width="100.00263157894736" height="39.011566679999994" as="geometry" />
        </mxCell>
        <mxCell id="0_KBqYn_ndAyOyzbdBZQ-240" value="" style="group;strokeWidth=1;rotation=-180;" vertex="1" connectable="0" parent="58">
          <mxGeometry x="80" y="330" width="100" height="240" as="geometry" />
        </mxCell>
        <mxCell id="0_KBqYn_ndAyOyzbdBZQ-241" value="" style="verticalAlign=middle;endArrow=block;curved=0;rounded=0;fillColor=#1ba1e2;strokeColor=#006EAF;strokeWidth=9;flowAnimation=1;fontColor=#FFFFFF;labelBackgroundColor=#3333FF;spacingRight=0;spacingBottom=0;spacingLeft=21;fontFamily=Times New Roman;labelBorderColor=none;labelPosition=center;verticalLabelPosition=middle;align=center;textShadow=0;html=1;dashed=1;startArrow=none;startFill=0;dashPattern=1 1;shadow=0;fontSize=18;" edge="1" parent="0_KBqYn_ndAyOyzbdBZQ-240" source="0_KBqYn_ndAyOyzbdBZQ-243">
          <mxGeometry x="-0.3333" y="10" width="80" relative="1" as="geometry">
            <mxPoint x="33" y="229.37777777777777" as="sourcePoint" />
            <mxPoint x="50" y="69.77777777777779" as="targetPoint" />
            <mxPoint as="offset" />
          </mxGeometry>
        </mxCell>
        <mxCell id="0_KBqYn_ndAyOyzbdBZQ-242" value="" style="verticalAlign=middle;endArrow=none;curved=0;rounded=0;fillColor=#1ba1e2;strokeColor=#006EAF;strokeWidth=10;flowAnimation=1;fontColor=#FFFFFF;labelBackgroundColor=#3333FF;spacingRight=0;spacingBottom=0;spacingLeft=21;fontFamily=Times New Roman;labelBorderColor=none;labelPosition=center;verticalLabelPosition=middle;align=center;textShadow=0;html=1;dashed=1;startArrow=oval;startFill=0;dashPattern=1 1;shadow=0;endSize=6;" edge="1" parent="0_KBqYn_ndAyOyzbdBZQ-240" target="0_KBqYn_ndAyOyzbdBZQ-243">
          <mxGeometry x="-0.3333" y="10" width="80" relative="1" as="geometry">
            <mxPoint x="49" y="309.77777777777777" as="sourcePoint" />
            <mxPoint x="50" y="150.17777777777778" as="targetPoint" />
            <mxPoint as="offset" />
          </mxGeometry>
        </mxCell>
        <mxCell id="0_KBqYn_ndAyOyzbdBZQ-243" value="&lt;font style=&quot;font-size: 17px;&quot;&gt;Request&lt;/font&gt;" style="rounded=1;whiteSpace=wrap;html=1;align=center;spacingBottom=0;fillColor=#1ba1e2;strokeColor=#006EAF;rotation=0;flipH=1;flipV=1;direction=west;" vertex="1" parent="0_KBqYn_ndAyOyzbdBZQ-240">
          <mxGeometry y="165.77777777777777" width="100" height="37.332" as="geometry" />
        </mxCell>
        <mxCell id="44" value="Backend" style="" parent="0" />
        <mxCell id="45" value="" style="rounded=1;whiteSpace=wrap;html=1;fillStyle=solid;fillColor=#b1ddf0;fontFamily=Times New Roman;strokeColor=#10739e;shadow=0;" parent="44" vertex="1">
          <mxGeometry x="-280" y="-240" width="990" height="450" as="geometry" />
        </mxCell>
        <mxCell id="46" value="&lt;h1&gt;Backend - NodeJS &amp;amp; ExpressJS&lt;/h1&gt;" style="rounded=1;whiteSpace=wrap;html=1;fontFamily=Helvetica;strokeColor=#006EAF;align=center;verticalAlign=middle;fontSize=12;fontColor=#ffffff;fillColor=#1ba1e2;" parent="44" vertex="1">
          <mxGeometry y="-220" width="480" height="60" as="geometry" />
        </mxCell>
        <mxCell id="47" value="Frontend" parent="0" />
        <mxCell id="81" value="" style="rounded=1;whiteSpace=wrap;html=1;fillStyle=solid;fillColor=#b1ddf0;fontFamily=Times New Roman;strokeColor=#10739e;glass=0;shadow=0;" parent="47" vertex="1">
          <mxGeometry x="-290" y="960" width="1050" height="550" as="geometry" />
        </mxCell>
        <mxCell id="82" value="&lt;h1&gt;Frontend - ReactJS&lt;/h1&gt;" style="rounded=1;whiteSpace=wrap;html=1;fontFamily=Helvetica;strokeColor=#006EAF;align=center;verticalAlign=middle;fontSize=12;fontColor=#ffffff;fillColor=#1ba1e2;" parent="47" vertex="1">
          <mxGeometry x="30" y="980" width="325" height="60" as="geometry" />
        </mxCell>
        <mxCell id="50" value="Database" style="" parent="0" />
        <mxCell id="51" value="" style="rounded=1;whiteSpace=wrap;html=1;fillStyle=auto;strokeColor=#10739e;align=center;verticalAlign=middle;fontFamily=Times New Roman;fontSize=12;fillColor=#b1ddf0;shadow=0;" parent="50" vertex="1">
          <mxGeometry x="1010" y="-280" width="1670" height="590" as="geometry" />
        </mxCell>
        <mxCell id="53" value="&lt;h1&gt;&lt;font style=&quot;font-size: 35px;&quot;&gt;Database - MongoDB&lt;/font&gt;&lt;/h1&gt;" style="rounded=1;whiteSpace=wrap;html=1;fontFamily=Helvetica;strokeColor=#006EAF;align=center;verticalAlign=middle;fontSize=12;fontColor=#ffffff;fillColor=#1ba1e2;" parent="50" vertex="1">
          <mxGeometry x="1525" y="-270" width="640" height="80" as="geometry" />
        </mxCell>
        <mxCell id="74" value="" style="group;fontFamily=Times New Roman;movable=1;resizable=1;rotatable=1;deletable=1;editable=1;locked=0;connectable=1;labelBackgroundColor=#15E7FF;rounded=1;glass=0;shadow=0;fillColor=#fad7ac;strokeColor=#b46504;fillStyle=auto;" parent="50" vertex="1" connectable="0">
          <mxGeometry x="1140" y="-110" width="420" height="310" as="geometry" />
        </mxCell>
        <mxCell id="0_KBqYn_ndAyOyzbdBZQ-88" value="" style="group" vertex="1" connectable="0" parent="74">
          <mxGeometry x="280" y="166.10711111111115" width="94.93473684210527" height="86.1111111111111" as="geometry" />
        </mxCell>
        <mxCell id="0_KBqYn_ndAyOyzbdBZQ-95" value="" style="group" vertex="1" connectable="0" parent="0_KBqYn_ndAyOyzbdBZQ-88">
          <mxGeometry width="94.93473684210527" height="86.1111111111111" as="geometry" />
        </mxCell>
        <mxCell id="75" value="" style="shape=cylinder3;whiteSpace=wrap;html=1;boundedLbl=1;backgroundOutline=1;size=15;fontFamily=Times New Roman;fillColor=#a20025;fontColor=#ffffff;strokeColor=#6F0000;" parent="0_KBqYn_ndAyOyzbdBZQ-95" vertex="1">
          <mxGeometry width="94.93473684210527" height="86.1111111111111" as="geometry" />
        </mxCell>
        <mxCell id="0_KBqYn_ndAyOyzbdBZQ-174" value="&lt;pre&gt;&lt;font face=&quot;Times New Roman&quot; style=&quot;font-size: 10px;&quot;&gt;&lt;b&gt;Replica Secondary&lt;/b&gt;&lt;/font&gt;&lt;/pre&gt;" style="text;strokeColor=none;align=center;fillColor=none;html=1;verticalAlign=middle;whiteSpace=wrap;rounded=0;fontFamily=Times New Roman;" vertex="1" parent="0_KBqYn_ndAyOyzbdBZQ-95">
          <mxGeometry x="15.452631578947148" y="25.892888888888848" width="68.03263157894736" height="42.318444444444445" as="geometry" />
        </mxCell>
        <mxCell id="0_KBqYn_ndAyOyzbdBZQ-96" value="" style="group" vertex="1" connectable="0" parent="74">
          <mxGeometry x="44.21052631578947" y="164.10888888888888" width="94.93473684210527" height="86.1111111111111" as="geometry" />
        </mxCell>
        <mxCell id="0_KBqYn_ndAyOyzbdBZQ-97" value="" style="shape=cylinder3;whiteSpace=wrap;html=1;boundedLbl=1;backgroundOutline=1;size=15;fontFamily=Times New Roman;fillColor=#a20025;strokeColor=#6F0000;fontColor=#ffffff;" vertex="1" parent="0_KBqYn_ndAyOyzbdBZQ-96">
          <mxGeometry width="94.93473684210527" height="86.1111111111111" as="geometry" />
        </mxCell>
        <mxCell id="0_KBqYn_ndAyOyzbdBZQ-98" value="&lt;pre&gt;&lt;font face=&quot;Times New Roman&quot; style=&quot;font-size: 10px;&quot;&gt;&lt;b&gt;Replica Secondary&lt;/b&gt;&lt;/font&gt;&lt;/pre&gt;" style="text;strokeColor=none;align=center;fillColor=none;html=1;verticalAlign=middle;whiteSpace=wrap;rounded=0;fontFamily=Times New Roman;" vertex="1" parent="0_KBqYn_ndAyOyzbdBZQ-96">
          <mxGeometry x="13.882105263157875" y="28.11111111111111" width="68.03263157894736" height="42.318444444444445" as="geometry" />
        </mxCell>
        <mxCell id="0_KBqYn_ndAyOyzbdBZQ-99" value="" style="group" vertex="1" connectable="0" parent="74">
          <mxGeometry x="162.10526315789474" y="62" width="94.93473684210527" height="86.1111111111111" as="geometry" />
        </mxCell>
        <mxCell id="0_KBqYn_ndAyOyzbdBZQ-100" value="" style="shape=cylinder3;whiteSpace=wrap;html=1;boundedLbl=1;backgroundOutline=1;size=15;fontFamily=Times New Roman;fillColor=#a20025;fontColor=#ffffff;strokeColor=#6F0000;" vertex="1" parent="0_KBqYn_ndAyOyzbdBZQ-99">
          <mxGeometry width="94.93473684210527" height="86.1111111111111" as="geometry" />
        </mxCell>
        <mxCell id="0_KBqYn_ndAyOyzbdBZQ-101" value="&lt;pre&gt;&lt;font style=&quot;font-size: 10px;&quot;&gt;Replica Primary&lt;/font&gt;&lt;/pre&gt;" style="text;strokeColor=none;align=center;fillColor=none;html=1;verticalAlign=middle;whiteSpace=wrap;rounded=0;fontFamily=Times New Roman;fontSize=15;" vertex="1" parent="0_KBqYn_ndAyOyzbdBZQ-99">
          <mxGeometry x="13.882105263157875" y="24.11111111111111" width="68.03263157894736" height="42.318444444444445" as="geometry" />
        </mxCell>
        <mxCell id="0_KBqYn_ndAyOyzbdBZQ-104" value="&lt;h1&gt;&lt;font&gt;Shard 1&lt;/font&gt;&lt;/h1&gt;" style="rounded=1;whiteSpace=wrap;html=1;fontFamily=Helvetica;strokeColor=#006EAF;align=center;verticalAlign=middle;fontSize=12;fontColor=#ffffff;fillColor=#1ba1e2;" vertex="1" parent="74">
          <mxGeometry x="132.6315789473684" y="6.888888888888888" width="140.42736842105265" height="27.555555555555554" as="geometry" />
        </mxCell>
        <mxCell id="0_KBqYn_ndAyOyzbdBZQ-168" value="" style="group" vertex="1" connectable="0" parent="74">
          <mxGeometry x="125" y="107.33" width="33.74" height="75.78" as="geometry" />
        </mxCell>
        <mxCell id="0_KBqYn_ndAyOyzbdBZQ-169" value="" style="group" vertex="1" connectable="0" parent="0_KBqYn_ndAyOyzbdBZQ-168">
          <mxGeometry width="33.74" height="75.78" as="geometry" />
        </mxCell>
        <mxCell id="0_KBqYn_ndAyOyzbdBZQ-170" value="&lt;h4&gt;&lt;font face=&quot;Times New Roman&quot; style=&quot;font-size: 7px;&quot;&gt;WRITE&lt;/font&gt;&lt;/h4&gt;" style="rounded=1;whiteSpace=wrap;html=1;align=center;spacingBottom=4;labelBackgroundColor=none;fillColor=#1ba1e2;fontColor=#ffffff;strokeColor=#006EAF;" vertex="1" parent="0_KBqYn_ndAyOyzbdBZQ-169">
          <mxGeometry y="25.260000000000005" width="33.74" height="8.42" as="geometry" />
        </mxCell>
        <mxCell id="0_KBqYn_ndAyOyzbdBZQ-171" value="" style="verticalAlign=middle;endArrow=block;curved=0;rounded=0;fillColor=#1ba1e2;strokeColor=#006EAF;strokeWidth=3;flowAnimation=1;fontColor=#FFFFFF;labelBackgroundColor=#3333FF;spacingRight=0;spacingBottom=0;spacingLeft=21;fontFamily=Times New Roman;labelBorderColor=none;labelPosition=center;verticalLabelPosition=middle;align=center;textShadow=0;html=1;dashed=1;startArrow=none;startFill=0;dashPattern=1 1;shadow=0;entryX=0.783;entryY=0.016;entryDx=0;entryDy=0;entryPerimeter=0;" edge="1" parent="74" source="0_KBqYn_ndAyOyzbdBZQ-170" target="0_KBqYn_ndAyOyzbdBZQ-97">
          <mxGeometry x="-0.3333" y="10" width="80" relative="1" as="geometry">
            <mxPoint x="164.3157894736842" y="135.4814814814815" as="sourcePoint" />
            <mxPoint x="160.6315789473684" y="186.00000000000009" as="targetPoint" />
            <mxPoint as="offset" />
          </mxGeometry>
        </mxCell>
        <mxCell id="0_KBqYn_ndAyOyzbdBZQ-172" value="" style="verticalAlign=middle;endArrow=none;curved=0;rounded=0;fillColor=#1ba1e2;strokeColor=#006EAF;strokeWidth=3;flowAnimation=1;fontColor=#FFFFFF;labelBackgroundColor=#3333FF;spacingRight=0;spacingBottom=0;spacingLeft=21;fontFamily=Times New Roman;labelBorderColor=none;labelPosition=center;verticalLabelPosition=middle;align=center;textShadow=0;html=1;dashed=1;startArrow=oval;startFill=0;dashPattern=1 1;shadow=0;exitX=0.013;exitY=0.572;exitDx=0;exitDy=0;exitPerimeter=0;" edge="1" parent="74" target="0_KBqYn_ndAyOyzbdBZQ-170" source="0_KBqYn_ndAyOyzbdBZQ-100">
          <mxGeometry x="-0.3333" y="10" width="80" relative="1" as="geometry">
            <mxPoint x="153.26315789473682" y="96.44444444444444" as="sourcePoint" />
            <mxPoint x="153.26315789473682" y="146.96296296296296" as="targetPoint" />
            <mxPoint as="offset" />
          </mxGeometry>
        </mxCell>
        <mxCell id="0_KBqYn_ndAyOyzbdBZQ-158" value="" style="group" vertex="1" connectable="0" parent="74">
          <mxGeometry x="260.0426315789473" y="103.33333333333333" width="30" height="75.78" as="geometry" />
        </mxCell>
        <mxCell id="0_KBqYn_ndAyOyzbdBZQ-155" value="&lt;h4&gt;&lt;font face=&quot;Times New Roman&quot; style=&quot;font-size: 7px;&quot;&gt;WRITE&lt;/font&gt;&lt;/h4&gt;" style="rounded=1;whiteSpace=wrap;html=1;align=center;spacingBottom=4;labelBackgroundColor=none;fillColor=#1ba1e2;fontColor=#ffffff;strokeColor=#006EAF;" vertex="1" parent="0_KBqYn_ndAyOyzbdBZQ-158">
          <mxGeometry y="25.260000000000005" width="30" height="8.42" as="geometry" />
        </mxCell>
        <mxCell id="0_KBqYn_ndAyOyzbdBZQ-154" value="" style="verticalAlign=middle;endArrow=block;curved=0;rounded=0;fillColor=#1ba1e2;strokeColor=#006EAF;strokeWidth=3;flowAnimation=1;fontColor=#FFFFFF;labelBackgroundColor=#3333FF;spacingRight=0;spacingBottom=0;spacingLeft=21;fontFamily=Times New Roman;labelBorderColor=none;labelPosition=center;verticalLabelPosition=middle;align=center;textShadow=0;html=1;dashed=1;startArrow=none;startFill=0;dashPattern=1 1;shadow=0;entryX=0.172;entryY=0.051;entryDx=0;entryDy=0;entryPerimeter=0;" edge="1" parent="74" source="0_KBqYn_ndAyOyzbdBZQ-155" target="75">
          <mxGeometry x="-0.3333" y="10" width="80" relative="1" as="geometry">
            <mxPoint x="294.73684210526307" y="114.81481481481482" as="sourcePoint" />
            <mxPoint x="291.0526315789473" y="165.33333333333337" as="targetPoint" />
            <mxPoint as="offset" />
          </mxGeometry>
        </mxCell>
        <mxCell id="0_KBqYn_ndAyOyzbdBZQ-156" value="" style="verticalAlign=middle;endArrow=none;curved=0;rounded=0;fillColor=#1ba1e2;strokeColor=#006EAF;strokeWidth=3;flowAnimation=1;fontColor=#FFFFFF;labelBackgroundColor=#3333FF;spacingRight=0;spacingBottom=0;spacingLeft=21;fontFamily=Times New Roman;labelBorderColor=none;labelPosition=center;verticalLabelPosition=middle;align=center;textShadow=0;html=1;dashed=1;startArrow=oval;startFill=0;dashPattern=1 1;shadow=0;exitX=1;exitY=0.5;exitDx=0;exitDy=0;exitPerimeter=0;" edge="1" parent="74" source="0_KBqYn_ndAyOyzbdBZQ-100" target="0_KBqYn_ndAyOyzbdBZQ-155">
          <mxGeometry x="-0.3333" y="10" width="80" relative="1" as="geometry">
            <mxPoint x="291.0526315789473" y="89.55555555555556" as="sourcePoint" />
            <mxPoint x="291.0526315789473" y="140.07407407407408" as="targetPoint" />
            <mxPoint as="offset" />
          </mxGeometry>
        </mxCell>
        <mxCell id="0_KBqYn_ndAyOyzbdBZQ-175" value="" style="group;fontFamily=Times New Roman;movable=1;resizable=1;rotatable=1;deletable=1;editable=1;locked=0;connectable=1;labelBackgroundColor=#15E7FF;rounded=1;glass=0;shadow=0;fillColor=#fad7ac;strokeColor=#b46504;fillStyle=auto;" vertex="1" connectable="0" parent="50">
          <mxGeometry x="1620" y="-110" width="420" height="310" as="geometry" />
        </mxCell>
        <mxCell id="0_KBqYn_ndAyOyzbdBZQ-176" value="" style="group" vertex="1" connectable="0" parent="0_KBqYn_ndAyOyzbdBZQ-175">
          <mxGeometry x="280" y="166.10711111111115" width="94.93473684210527" height="86.1111111111111" as="geometry" />
        </mxCell>
        <mxCell id="0_KBqYn_ndAyOyzbdBZQ-177" value="" style="group" vertex="1" connectable="0" parent="0_KBqYn_ndAyOyzbdBZQ-176">
          <mxGeometry width="94.93473684210527" height="86.1111111111111" as="geometry" />
        </mxCell>
        <mxCell id="0_KBqYn_ndAyOyzbdBZQ-178" value="" style="shape=cylinder3;whiteSpace=wrap;html=1;boundedLbl=1;backgroundOutline=1;size=15;fontFamily=Times New Roman;fillColor=#a20025;fontColor=#ffffff;strokeColor=#6F0000;" vertex="1" parent="0_KBqYn_ndAyOyzbdBZQ-177">
          <mxGeometry width="94.93473684210527" height="86.1111111111111" as="geometry" />
        </mxCell>
        <mxCell id="0_KBqYn_ndAyOyzbdBZQ-179" value="&lt;pre&gt;&lt;font face=&quot;Times New Roman&quot; style=&quot;font-size: 10px;&quot;&gt;&lt;b&gt;Replica Secondary&lt;/b&gt;&lt;/font&gt;&lt;/pre&gt;" style="text;strokeColor=none;align=center;fillColor=none;html=1;verticalAlign=middle;whiteSpace=wrap;rounded=0;fontFamily=Times New Roman;" vertex="1" parent="0_KBqYn_ndAyOyzbdBZQ-177">
          <mxGeometry x="15.452631578947148" y="25.892888888888848" width="68.03263157894736" height="42.318444444444445" as="geometry" />
        </mxCell>
        <mxCell id="0_KBqYn_ndAyOyzbdBZQ-180" value="" style="group" vertex="1" connectable="0" parent="0_KBqYn_ndAyOyzbdBZQ-175">
          <mxGeometry x="44.21052631578947" y="164.10888888888888" width="94.93473684210527" height="86.1111111111111" as="geometry" />
        </mxCell>
        <mxCell id="0_KBqYn_ndAyOyzbdBZQ-181" value="" style="shape=cylinder3;whiteSpace=wrap;html=1;boundedLbl=1;backgroundOutline=1;size=15;fontFamily=Times New Roman;fillColor=#a20025;strokeColor=#6F0000;fontColor=#ffffff;" vertex="1" parent="0_KBqYn_ndAyOyzbdBZQ-180">
          <mxGeometry width="94.93473684210527" height="86.1111111111111" as="geometry" />
        </mxCell>
        <mxCell id="0_KBqYn_ndAyOyzbdBZQ-182" value="&lt;pre&gt;&lt;font face=&quot;Times New Roman&quot; style=&quot;font-size: 10px;&quot;&gt;&lt;b&gt;Replica Secondary&lt;/b&gt;&lt;/font&gt;&lt;/pre&gt;" style="text;strokeColor=none;align=center;fillColor=none;html=1;verticalAlign=middle;whiteSpace=wrap;rounded=0;fontFamily=Times New Roman;" vertex="1" parent="0_KBqYn_ndAyOyzbdBZQ-180">
          <mxGeometry x="13.882105263157875" y="28.11111111111111" width="68.03263157894736" height="42.318444444444445" as="geometry" />
        </mxCell>
        <mxCell id="0_KBqYn_ndAyOyzbdBZQ-183" value="" style="group" vertex="1" connectable="0" parent="0_KBqYn_ndAyOyzbdBZQ-175">
          <mxGeometry x="162.10526315789474" y="62" width="94.93473684210527" height="86.1111111111111" as="geometry" />
        </mxCell>
        <mxCell id="0_KBqYn_ndAyOyzbdBZQ-184" value="" style="shape=cylinder3;whiteSpace=wrap;html=1;boundedLbl=1;backgroundOutline=1;size=15;fontFamily=Times New Roman;fillColor=#a20025;fontColor=#ffffff;strokeColor=#6F0000;" vertex="1" parent="0_KBqYn_ndAyOyzbdBZQ-183">
          <mxGeometry width="94.93473684210527" height="86.1111111111111" as="geometry" />
        </mxCell>
        <mxCell id="0_KBqYn_ndAyOyzbdBZQ-185" value="&lt;pre&gt;&lt;font style=&quot;font-size: 10px;&quot;&gt;Replica Primary&lt;/font&gt;&lt;/pre&gt;" style="text;strokeColor=none;align=center;fillColor=none;html=1;verticalAlign=middle;whiteSpace=wrap;rounded=0;fontFamily=Times New Roman;fontSize=15;" vertex="1" parent="0_KBqYn_ndAyOyzbdBZQ-183">
          <mxGeometry x="13.882105263157875" y="24.11111111111111" width="68.03263157894736" height="42.318444444444445" as="geometry" />
        </mxCell>
        <mxCell id="0_KBqYn_ndAyOyzbdBZQ-186" value="&lt;h1&gt;&lt;font&gt;Shard 2&lt;/font&gt;&lt;/h1&gt;" style="rounded=1;whiteSpace=wrap;html=1;fontFamily=Helvetica;strokeColor=#006EAF;align=center;verticalAlign=middle;fontSize=12;fontColor=#ffffff;fillColor=#1ba1e2;" vertex="1" parent="0_KBqYn_ndAyOyzbdBZQ-175">
          <mxGeometry x="132.6315789473684" y="6.888888888888888" width="140.42736842105265" height="27.555555555555554" as="geometry" />
        </mxCell>
        <mxCell id="0_KBqYn_ndAyOyzbdBZQ-187" value="" style="group" vertex="1" connectable="0" parent="0_KBqYn_ndAyOyzbdBZQ-175">
          <mxGeometry x="125" y="107.33" width="33.74" height="75.78" as="geometry" />
        </mxCell>
        <mxCell id="0_KBqYn_ndAyOyzbdBZQ-188" value="" style="group" vertex="1" connectable="0" parent="0_KBqYn_ndAyOyzbdBZQ-187">
          <mxGeometry width="33.74" height="75.78" as="geometry" />
        </mxCell>
        <mxCell id="0_KBqYn_ndAyOyzbdBZQ-189" value="&lt;h4&gt;&lt;font face=&quot;Times New Roman&quot; style=&quot;font-size: 7px;&quot;&gt;WRITE&lt;/font&gt;&lt;/h4&gt;" style="rounded=1;whiteSpace=wrap;html=1;align=center;spacingBottom=4;labelBackgroundColor=none;fillColor=#1ba1e2;fontColor=#ffffff;strokeColor=#006EAF;" vertex="1" parent="0_KBqYn_ndAyOyzbdBZQ-188">
          <mxGeometry y="25.260000000000005" width="33.74" height="8.42" as="geometry" />
        </mxCell>
        <mxCell id="0_KBqYn_ndAyOyzbdBZQ-190" value="" style="verticalAlign=middle;endArrow=block;curved=0;rounded=0;fillColor=#1ba1e2;strokeColor=#006EAF;strokeWidth=3;flowAnimation=1;fontColor=#FFFFFF;labelBackgroundColor=#3333FF;spacingRight=0;spacingBottom=0;spacingLeft=21;fontFamily=Times New Roman;labelBorderColor=none;labelPosition=center;verticalLabelPosition=middle;align=center;textShadow=0;html=1;dashed=1;startArrow=none;startFill=0;dashPattern=1 1;shadow=0;entryX=0.783;entryY=0.016;entryDx=0;entryDy=0;entryPerimeter=0;" edge="1" parent="0_KBqYn_ndAyOyzbdBZQ-175" source="0_KBqYn_ndAyOyzbdBZQ-189" target="0_KBqYn_ndAyOyzbdBZQ-181">
          <mxGeometry x="-0.3333" y="10" width="80" relative="1" as="geometry">
            <mxPoint x="164.3157894736842" y="135.4814814814815" as="sourcePoint" />
            <mxPoint x="160.6315789473684" y="186.00000000000009" as="targetPoint" />
            <mxPoint as="offset" />
          </mxGeometry>
        </mxCell>
        <mxCell id="0_KBqYn_ndAyOyzbdBZQ-191" value="" style="verticalAlign=middle;endArrow=none;curved=0;rounded=0;fillColor=#1ba1e2;strokeColor=#006EAF;strokeWidth=3;flowAnimation=1;fontColor=#FFFFFF;labelBackgroundColor=#3333FF;spacingRight=0;spacingBottom=0;spacingLeft=21;fontFamily=Times New Roman;labelBorderColor=none;labelPosition=center;verticalLabelPosition=middle;align=center;textShadow=0;html=1;dashed=1;startArrow=oval;startFill=0;dashPattern=1 1;shadow=0;exitX=0.013;exitY=0.572;exitDx=0;exitDy=0;exitPerimeter=0;" edge="1" parent="0_KBqYn_ndAyOyzbdBZQ-175" source="0_KBqYn_ndAyOyzbdBZQ-184" target="0_KBqYn_ndAyOyzbdBZQ-189">
          <mxGeometry x="-0.3333" y="10" width="80" relative="1" as="geometry">
            <mxPoint x="153.26315789473682" y="96.44444444444444" as="sourcePoint" />
            <mxPoint x="153.26315789473682" y="146.96296296296296" as="targetPoint" />
            <mxPoint as="offset" />
          </mxGeometry>
        </mxCell>
        <mxCell id="0_KBqYn_ndAyOyzbdBZQ-192" value="" style="group" vertex="1" connectable="0" parent="0_KBqYn_ndAyOyzbdBZQ-175">
          <mxGeometry x="260.0426315789473" y="103.33333333333333" width="30" height="75.78" as="geometry" />
        </mxCell>
        <mxCell id="0_KBqYn_ndAyOyzbdBZQ-193" value="&lt;h4&gt;&lt;font face=&quot;Times New Roman&quot; style=&quot;font-size: 7px;&quot;&gt;WRITE&lt;/font&gt;&lt;/h4&gt;" style="rounded=1;whiteSpace=wrap;html=1;align=center;spacingBottom=4;labelBackgroundColor=none;fillColor=#1ba1e2;fontColor=#ffffff;strokeColor=#006EAF;" vertex="1" parent="0_KBqYn_ndAyOyzbdBZQ-192">
          <mxGeometry y="25.260000000000005" width="30" height="8.42" as="geometry" />
        </mxCell>
        <mxCell id="0_KBqYn_ndAyOyzbdBZQ-194" value="" style="verticalAlign=middle;endArrow=block;curved=0;rounded=0;fillColor=#1ba1e2;strokeColor=#006EAF;strokeWidth=3;flowAnimation=1;fontColor=#FFFFFF;labelBackgroundColor=#3333FF;spacingRight=0;spacingBottom=0;spacingLeft=21;fontFamily=Times New Roman;labelBorderColor=none;labelPosition=center;verticalLabelPosition=middle;align=center;textShadow=0;html=1;dashed=1;startArrow=none;startFill=0;dashPattern=1 1;shadow=0;entryX=0.172;entryY=0.051;entryDx=0;entryDy=0;entryPerimeter=0;" edge="1" parent="0_KBqYn_ndAyOyzbdBZQ-175" source="0_KBqYn_ndAyOyzbdBZQ-193" target="0_KBqYn_ndAyOyzbdBZQ-178">
          <mxGeometry x="-0.3333" y="10" width="80" relative="1" as="geometry">
            <mxPoint x="294.73684210526307" y="114.81481481481482" as="sourcePoint" />
            <mxPoint x="291.0526315789473" y="165.33333333333337" as="targetPoint" />
            <mxPoint as="offset" />
          </mxGeometry>
        </mxCell>
        <mxCell id="0_KBqYn_ndAyOyzbdBZQ-195" value="" style="verticalAlign=middle;endArrow=none;curved=0;rounded=0;fillColor=#1ba1e2;strokeColor=#006EAF;strokeWidth=3;flowAnimation=1;fontColor=#FFFFFF;labelBackgroundColor=#3333FF;spacingRight=0;spacingBottom=0;spacingLeft=21;fontFamily=Times New Roman;labelBorderColor=none;labelPosition=center;verticalLabelPosition=middle;align=center;textShadow=0;html=1;dashed=1;startArrow=oval;startFill=0;dashPattern=1 1;shadow=0;exitX=1;exitY=0.5;exitDx=0;exitDy=0;exitPerimeter=0;" edge="1" parent="0_KBqYn_ndAyOyzbdBZQ-175" source="0_KBqYn_ndAyOyzbdBZQ-184" target="0_KBqYn_ndAyOyzbdBZQ-193">
          <mxGeometry x="-0.3333" y="10" width="80" relative="1" as="geometry">
            <mxPoint x="291.0526315789473" y="89.55555555555556" as="sourcePoint" />
            <mxPoint x="291.0526315789473" y="140.07407407407408" as="targetPoint" />
            <mxPoint as="offset" />
          </mxGeometry>
        </mxCell>
        <mxCell id="0_KBqYn_ndAyOyzbdBZQ-196" value="" style="group;fontFamily=Times New Roman;movable=1;resizable=1;rotatable=1;deletable=1;editable=1;locked=0;connectable=1;labelBackgroundColor=#15E7FF;rounded=1;glass=0;shadow=0;fillColor=#fad7ac;strokeColor=#b46504;fillStyle=auto;" vertex="1" connectable="0" parent="50">
          <mxGeometry x="2110" y="-120" width="420" height="310" as="geometry" />
        </mxCell>
        <mxCell id="0_KBqYn_ndAyOyzbdBZQ-197" value="" style="group" vertex="1" connectable="0" parent="0_KBqYn_ndAyOyzbdBZQ-196">
          <mxGeometry x="280" y="166.10711111111115" width="94.93473684210527" height="86.1111111111111" as="geometry" />
        </mxCell>
        <mxCell id="0_KBqYn_ndAyOyzbdBZQ-198" value="" style="group" vertex="1" connectable="0" parent="0_KBqYn_ndAyOyzbdBZQ-197">
          <mxGeometry width="94.93473684210527" height="86.1111111111111" as="geometry" />
        </mxCell>
        <mxCell id="0_KBqYn_ndAyOyzbdBZQ-199" value="" style="shape=cylinder3;whiteSpace=wrap;html=1;boundedLbl=1;backgroundOutline=1;size=15;fontFamily=Times New Roman;fillColor=#a20025;fontColor=#ffffff;strokeColor=#6F0000;" vertex="1" parent="0_KBqYn_ndAyOyzbdBZQ-198">
          <mxGeometry width="94.93473684210527" height="86.1111111111111" as="geometry" />
        </mxCell>
        <mxCell id="0_KBqYn_ndAyOyzbdBZQ-200" value="&lt;pre&gt;&lt;font face=&quot;Times New Roman&quot; style=&quot;font-size: 10px;&quot;&gt;&lt;b&gt;Replica Secondary&lt;/b&gt;&lt;/font&gt;&lt;/pre&gt;" style="text;strokeColor=none;align=center;fillColor=none;html=1;verticalAlign=middle;whiteSpace=wrap;rounded=0;fontFamily=Times New Roman;" vertex="1" parent="0_KBqYn_ndAyOyzbdBZQ-198">
          <mxGeometry x="15.452631578947148" y="25.892888888888848" width="68.03263157894736" height="42.318444444444445" as="geometry" />
        </mxCell>
        <mxCell id="0_KBqYn_ndAyOyzbdBZQ-201" value="" style="group" vertex="1" connectable="0" parent="0_KBqYn_ndAyOyzbdBZQ-196">
          <mxGeometry x="44.21052631578947" y="164.10888888888888" width="94.93473684210527" height="86.1111111111111" as="geometry" />
        </mxCell>
        <mxCell id="0_KBqYn_ndAyOyzbdBZQ-202" value="" style="shape=cylinder3;whiteSpace=wrap;html=1;boundedLbl=1;backgroundOutline=1;size=15;fontFamily=Times New Roman;fillColor=#a20025;strokeColor=#6F0000;fontColor=#ffffff;" vertex="1" parent="0_KBqYn_ndAyOyzbdBZQ-201">
          <mxGeometry width="94.93473684210527" height="86.1111111111111" as="geometry" />
        </mxCell>
        <mxCell id="0_KBqYn_ndAyOyzbdBZQ-203" value="&lt;pre&gt;&lt;font face=&quot;Times New Roman&quot; style=&quot;font-size: 10px;&quot;&gt;&lt;b&gt;Replica Secondary&lt;/b&gt;&lt;/font&gt;&lt;/pre&gt;" style="text;strokeColor=none;align=center;fillColor=none;html=1;verticalAlign=middle;whiteSpace=wrap;rounded=0;fontFamily=Times New Roman;" vertex="1" parent="0_KBqYn_ndAyOyzbdBZQ-201">
          <mxGeometry x="13.882105263157875" y="28.11111111111111" width="68.03263157894736" height="42.318444444444445" as="geometry" />
        </mxCell>
        <mxCell id="0_KBqYn_ndAyOyzbdBZQ-204" value="" style="group" vertex="1" connectable="0" parent="0_KBqYn_ndAyOyzbdBZQ-196">
          <mxGeometry x="162.10526315789474" y="62" width="94.93473684210527" height="86.1111111111111" as="geometry" />
        </mxCell>
        <mxCell id="0_KBqYn_ndAyOyzbdBZQ-205" value="" style="shape=cylinder3;whiteSpace=wrap;html=1;boundedLbl=1;backgroundOutline=1;size=15;fontFamily=Times New Roman;fillColor=#a20025;fontColor=#ffffff;strokeColor=#6F0000;" vertex="1" parent="0_KBqYn_ndAyOyzbdBZQ-204">
          <mxGeometry width="94.93473684210527" height="86.1111111111111" as="geometry" />
        </mxCell>
        <mxCell id="0_KBqYn_ndAyOyzbdBZQ-206" value="&lt;pre&gt;&lt;font style=&quot;font-size: 10px;&quot;&gt;Replica Primary&lt;/font&gt;&lt;/pre&gt;" style="text;strokeColor=none;align=center;fillColor=none;html=1;verticalAlign=middle;whiteSpace=wrap;rounded=0;fontFamily=Times New Roman;fontSize=15;" vertex="1" parent="0_KBqYn_ndAyOyzbdBZQ-204">
          <mxGeometry x="13.882105263157875" y="24.11111111111111" width="68.03263157894736" height="42.318444444444445" as="geometry" />
        </mxCell>
        <mxCell id="0_KBqYn_ndAyOyzbdBZQ-207" value="&lt;h1&gt;&lt;font&gt;Shard 3&lt;/font&gt;&lt;/h1&gt;" style="rounded=1;whiteSpace=wrap;html=1;fontFamily=Helvetica;strokeColor=#006EAF;align=center;verticalAlign=middle;fontSize=12;fontColor=#ffffff;fillColor=#1ba1e2;" vertex="1" parent="0_KBqYn_ndAyOyzbdBZQ-196">
          <mxGeometry x="132.6315789473684" y="6.888888888888888" width="140.42736842105265" height="27.555555555555554" as="geometry" />
        </mxCell>
        <mxCell id="0_KBqYn_ndAyOyzbdBZQ-208" value="" style="group" vertex="1" connectable="0" parent="0_KBqYn_ndAyOyzbdBZQ-196">
          <mxGeometry x="125" y="107.33" width="33.74" height="75.78" as="geometry" />
        </mxCell>
        <mxCell id="0_KBqYn_ndAyOyzbdBZQ-209" value="" style="group" vertex="1" connectable="0" parent="0_KBqYn_ndAyOyzbdBZQ-208">
          <mxGeometry width="33.74" height="75.78" as="geometry" />
        </mxCell>
        <mxCell id="0_KBqYn_ndAyOyzbdBZQ-210" value="&lt;h4&gt;&lt;font face=&quot;Times New Roman&quot; style=&quot;font-size: 7px;&quot;&gt;WRITE&lt;/font&gt;&lt;/h4&gt;" style="rounded=1;whiteSpace=wrap;html=1;align=center;spacingBottom=4;labelBackgroundColor=none;fillColor=#1ba1e2;fontColor=#ffffff;strokeColor=#006EAF;" vertex="1" parent="0_KBqYn_ndAyOyzbdBZQ-209">
          <mxGeometry y="25.260000000000005" width="33.74" height="8.42" as="geometry" />
        </mxCell>
        <mxCell id="0_KBqYn_ndAyOyzbdBZQ-211" value="" style="verticalAlign=middle;endArrow=block;curved=0;rounded=0;fillColor=#1ba1e2;strokeColor=#006EAF;strokeWidth=3;flowAnimation=1;fontColor=#FFFFFF;labelBackgroundColor=#3333FF;spacingRight=0;spacingBottom=0;spacingLeft=21;fontFamily=Times New Roman;labelBorderColor=none;labelPosition=center;verticalLabelPosition=middle;align=center;textShadow=0;html=1;dashed=1;startArrow=none;startFill=0;dashPattern=1 1;shadow=0;entryX=0.783;entryY=0.016;entryDx=0;entryDy=0;entryPerimeter=0;" edge="1" parent="0_KBqYn_ndAyOyzbdBZQ-196" source="0_KBqYn_ndAyOyzbdBZQ-210" target="0_KBqYn_ndAyOyzbdBZQ-202">
          <mxGeometry x="-0.3333" y="10" width="80" relative="1" as="geometry">
            <mxPoint x="164.3157894736842" y="135.4814814814815" as="sourcePoint" />
            <mxPoint x="160.6315789473684" y="186.00000000000009" as="targetPoint" />
            <mxPoint as="offset" />
          </mxGeometry>
        </mxCell>
        <mxCell id="0_KBqYn_ndAyOyzbdBZQ-212" value="" style="verticalAlign=middle;endArrow=none;curved=0;rounded=0;fillColor=#1ba1e2;strokeColor=#006EAF;strokeWidth=3;flowAnimation=1;fontColor=#FFFFFF;labelBackgroundColor=#3333FF;spacingRight=0;spacingBottom=0;spacingLeft=21;fontFamily=Times New Roman;labelBorderColor=none;labelPosition=center;verticalLabelPosition=middle;align=center;textShadow=0;html=1;dashed=1;startArrow=oval;startFill=0;dashPattern=1 1;shadow=0;exitX=0.013;exitY=0.572;exitDx=0;exitDy=0;exitPerimeter=0;" edge="1" parent="0_KBqYn_ndAyOyzbdBZQ-196" source="0_KBqYn_ndAyOyzbdBZQ-205" target="0_KBqYn_ndAyOyzbdBZQ-210">
          <mxGeometry x="-0.3333" y="10" width="80" relative="1" as="geometry">
            <mxPoint x="153.26315789473682" y="96.44444444444444" as="sourcePoint" />
            <mxPoint x="153.26315789473682" y="146.96296296296296" as="targetPoint" />
            <mxPoint as="offset" />
          </mxGeometry>
        </mxCell>
        <mxCell id="0_KBqYn_ndAyOyzbdBZQ-213" value="" style="group" vertex="1" connectable="0" parent="0_KBqYn_ndAyOyzbdBZQ-196">
          <mxGeometry x="260.0426315789473" y="103.33333333333333" width="30" height="75.78" as="geometry" />
        </mxCell>
        <mxCell id="0_KBqYn_ndAyOyzbdBZQ-214" value="&lt;h4&gt;&lt;font face=&quot;Times New Roman&quot; style=&quot;font-size: 7px;&quot;&gt;WRITE&lt;/font&gt;&lt;/h4&gt;" style="rounded=1;whiteSpace=wrap;html=1;align=center;spacingBottom=4;labelBackgroundColor=none;fillColor=#1ba1e2;fontColor=#ffffff;strokeColor=#006EAF;" vertex="1" parent="0_KBqYn_ndAyOyzbdBZQ-213">
          <mxGeometry y="25.260000000000005" width="30" height="8.42" as="geometry" />
        </mxCell>
        <mxCell id="0_KBqYn_ndAyOyzbdBZQ-215" value="" style="verticalAlign=middle;endArrow=block;curved=0;rounded=0;fillColor=#1ba1e2;strokeColor=#006EAF;strokeWidth=3;flowAnimation=1;fontColor=#FFFFFF;labelBackgroundColor=#3333FF;spacingRight=0;spacingBottom=0;spacingLeft=21;fontFamily=Times New Roman;labelBorderColor=none;labelPosition=center;verticalLabelPosition=middle;align=center;textShadow=0;html=1;dashed=1;startArrow=none;startFill=0;dashPattern=1 1;shadow=0;entryX=0.172;entryY=0.051;entryDx=0;entryDy=0;entryPerimeter=0;" edge="1" parent="0_KBqYn_ndAyOyzbdBZQ-196" source="0_KBqYn_ndAyOyzbdBZQ-214" target="0_KBqYn_ndAyOyzbdBZQ-199">
          <mxGeometry x="-0.3333" y="10" width="80" relative="1" as="geometry">
            <mxPoint x="294.73684210526307" y="114.81481481481482" as="sourcePoint" />
            <mxPoint x="291.0526315789473" y="165.33333333333337" as="targetPoint" />
            <mxPoint as="offset" />
          </mxGeometry>
        </mxCell>
        <mxCell id="0_KBqYn_ndAyOyzbdBZQ-216" value="" style="verticalAlign=middle;endArrow=none;curved=0;rounded=0;fillColor=#1ba1e2;strokeColor=#006EAF;strokeWidth=3;flowAnimation=1;fontColor=#FFFFFF;labelBackgroundColor=#3333FF;spacingRight=0;spacingBottom=0;spacingLeft=21;fontFamily=Times New Roman;labelBorderColor=none;labelPosition=center;verticalLabelPosition=middle;align=center;textShadow=0;html=1;dashed=1;startArrow=oval;startFill=0;dashPattern=1 1;shadow=0;exitX=1;exitY=0.5;exitDx=0;exitDy=0;exitPerimeter=0;" edge="1" parent="0_KBqYn_ndAyOyzbdBZQ-196" source="0_KBqYn_ndAyOyzbdBZQ-205" target="0_KBqYn_ndAyOyzbdBZQ-214">
          <mxGeometry x="-0.3333" y="10" width="80" relative="1" as="geometry">
            <mxPoint x="291.0526315789473" y="89.55555555555556" as="sourcePoint" />
            <mxPoint x="291.0526315789473" y="140.07407407407408" as="targetPoint" />
            <mxPoint as="offset" />
          </mxGeometry>
        </mxCell>
      </root>
    </mxGraphModel>
  </diagram>
</mxfile>
